# xmcd
#
# Track frame offsets:
#	150
#	23987
#	40867
#	55400
#	88352
#	105102
#	121952
#	147307
#	161935
#	186367
#	200987
#	223955
#	242970
#	259082
#	279020
#	296255
#
# Disc length: 4180 seconds
#
# Revision: 1
# Processed by: cddbd v1.5.2PL0 Copyright (c) Steve Scherf et al.
# Submitted via: CDmax 2.0
#
DISCID=fa105210
DTITLE=Various Artist - Soul Sounds Of The Seventies
DYEAR=1900
DGENRE=Misc
TTITLE0=Heatwave - Boogie Nights
TTITLE1=Tina Charles - I'll Go Where Your Music Takes Me
TTITLE2=Billy Ocean - Love Really Hurts Without You
TTITLE3=Rose Royce - Love Don't Live Here Anymore (live)
TTITLE4=Rose Royce - Car Wash (live)
TTITLE5=Tavares - More Than A Woman (live)
TTITLE6=Tavares - Heaven Must Be Missing An Angel (live)
TTITLE7=The Real Thing - Can You Feel The Force (live)
TTITLE8=The Real Thing - You To Me Are Everything (live)
TTITLE9=Tina Charles - Doctor Love
TTITLE10=Heatwave - Always And Forever
TTITLE11=Space - Magic Fly
TTITLE12=The Miracles - Love Machine
TTITLE13=The Supremes - Stoned Love
TTITLE14=The Elgins - Heaven Must Have Sent You
TTITLE15=Johnny Bristol and Liz Lands - Hang On In There Baby
EXTD=Quality Entertainment Division\nQED187
EXTT0=
EXTT1=
EXTT2=
EXTT3=
EXTT4=
EXTT5=
EXTT6=
EXTT7=
EXTT8=
EXTT9=
EXTT10=
EXTT11=
EXTT12=
EXTT13=
EXTT14=
EXTT15=
PLAYORDER=
